<svg xmlns="http://www.w3.org/2000/svg" xmlns:xlink="http://www.w3.org/1999/xlink" viewBox="0 0 430 430" width="430" height="430" style="width: 100%; height: 100%; transform: translate3d(0px, 0px, 0px); content-visibility: visible;" preserveAspectRatio="xMidYMid meet"><defs><clipPath id="__lottie_element_2"><rect width="430" height="430" x="0" y="0"/></clipPath><clipPath id="__lottie_element_4"><path d="M0,0 L430,0 L430,430 L0,430z"/></clipPath></defs><g clip-path="url(#__lottie_element_2)"><g clip-path="url(#__lottie_element_4)" style="display: block;" transform="matrix(1,0,0,1,0,0)" opacity="1"><g style="display: block;" transform="matrix(1,0,0,1,215,215)" opacity="1"><g opacity="1" transform="matrix(1,0,0,1,0,0)"><path stroke-linecap="round" stroke-linejoin="round" fill-opacity="0" class="primary" stroke="rgb(0,0,0)" stroke-opacity="1" stroke-width="12" d=" M144.94500732421875,14.956000328063965 C164.93699645996094,-5.035999774932861 174.97900390625,-31.257999420166016 174.97900390625,-57.4379997253418 C174.97900390625,-83.66000366210938 164.93699645996094,-109.88300323486328 144.94500732421875,-129.875 C127.88300323486328,-146.9550018310547 106.29499816894531,-156.7469940185547 84.03800201416016,-159.25 C54.13800048828125,-162.61300659179688 23.04400062561035,-152.8209991455078 0.11900000274181366,-129.875 C0.11900000274181366,-129.875 -0.004000000189989805,-129.7519989013672 -0.004000000189989805,-129.7519989013672 C-0.004000000189989805,-129.7519989013672 -0.12999999523162842,-129.875 -0.12999999523162842,-129.875 C-20.121999740600586,-149.86700439453125 -46.34400177001953,-159.9080047607422 -72.52400207519531,-159.9080047607422 C-98.74600219726562,-159.9080047607422 -124.96399688720703,-149.86700439453125 -144.95599365234375,-129.875 C-184.98500061035156,-89.88700103759766 -184.98500061035156,-25.031999588012695 -144.95599365234375,14.956000328063965 C-144.95599365234375,14.956000328063965 -0.004000000189989805,159.9080047607422 -0.004000000189989805,159.9080047607422 C-0.004000000189989805,159.9080047607422 144.94500732421875,14.956000328063965 144.94500732421875,14.956000328063965z"/></g></g><g style="display: block;" transform="matrix(1,0,0,1,215,215)" opacity="1"><g opacity="1" transform="matrix(1,0,0,1,0,0)"><path stroke-linecap="round" stroke-linejoin="round" fill-opacity="0" class="secondary" stroke="rgb(102,75,46)" stroke-opacity="1" stroke-width="12" d=" M-36.56800079345703,-124.1050033569336 C-46.834999084472656,-129.51499938964844 -57.40800094604492,-133.072998046875 -67.02799987792969,-133.072998046875 C-89.17400360107422,-133.072998046875 -106.99500274658203,-127.33300018310547 -123.88800048828125,-110.45800018310547 C-136.6649932861328,-97.69499969482422 -143.8719940185547,-84.13700103759766 -146.06900024414062,-70.38500213623047"/></g></g></g></g></svg>